<svg xmlns="http://www.w3.org/2000/svg" viewBox="0 0 17.01 10.78"><title>behance</title><path d="M7.8,1.12a2.68,2.68,0,0,1,.48,1.6A2.34,2.34,0,0,1,7.8,4.27a2.52,2.52,0,0,1-.8.6,2.36,2.36,0,0,1,1.21.93,2.78,2.78,0,0,1,.41,1.54A3.06,3.06,0,0,1,8.15,9a2.9,2.9,0,0,1-1.93,1.35,7.28,7.28,0,0,1-1.49.14H0V0H5.08A3.22,3.22,0,0,1,7.8,1.12ZM2.1,1.83V4.14H4.65a2.12,2.12,0,0,0,1.11-.26A1,1,0,0,0,6.19,3a.94.94,0,0,0-.56-1,4,4,0,0,0-1.24-.16Zm0,4.06v2.8H4.65A2.49,2.49,0,0,0,5.71,8.5,1.32,1.32,0,0,0,6.4,7.19a1.13,1.13,0,0,0-.67-1.13,2.66,2.66,0,0,0-1.05-.18ZM15,2.9A3.14,3.14,0,0,1,16.32,4a3.77,3.77,0,0,1,.62,1.61A10,10,0,0,1,17,7.2H11.34a1.86,1.86,0,0,0,.81,1.64,2.06,2.06,0,0,0,1.12.29,1.72,1.72,0,0,0,1.13-.36,1.68,1.68,0,0,0,.42-.54H16.9a2.55,2.55,0,0,1-.75,1.41,3.78,3.78,0,0,1-2.92,1.13,4.23,4.23,0,0,1-2.74-1A3.76,3.76,0,0,1,9.3,6.71a4.22,4.22,0,0,1,1.07-3.1,3.75,3.75,0,0,1,2.78-1.08A4.42,4.42,0,0,1,15,2.9Zm-3,1.76a2.12,2.12,0,0,0-.54,1.2h3.5a1.71,1.71,0,0,0-.54-1.23,1.79,1.79,0,0,0-1.21-.42A1.61,1.61,0,0,0,11.94,4.65ZM15.37.49h-4.5V1.8h4.5Z" style="fill:#fff"/></svg>