<svg xmlns="http://www.w3.org/2000/svg" viewBox="0 0 17.01 17.01"><title>dribbble</title><path d="M16.83,6.79a8.47,8.47,0,0,0-1.28-3A8.54,8.54,0,0,0,11.81.67,8.5,8.5,0,0,0,2.49,2.49a8.59,8.59,0,0,0-1,1.26,8.5,8.5,0,0,0,0,9.51,8.52,8.52,0,0,0,3.74,3.08,8.53,8.53,0,0,0,6.62,0,8.51,8.51,0,0,0,1.44-.78,8.54,8.54,0,0,0,2.3-2.3,8.52,8.52,0,0,0,1.28-6.47ZM15.76,8.43a16.79,16.79,0,0,0-5.06-.24l-.16-.37c-.15-.36-.31-.71-.48-1.05a9.34,9.34,0,0,0,4-2.88A7.24,7.24,0,0,1,15.76,8.43ZM13.3,3.05A7.9,7.9,0,0,1,9.51,5.68,36.91,36.91,0,0,0,6.79,1.45,7.25,7.25,0,0,1,13.3,3.05ZM6.76,1.45h0Zm-1.36.48A43.54,43.54,0,0,1,8.1,6.12,26.81,26.81,0,0,1,1.4,7,7.27,7.27,0,0,1,5.41,1.94ZM1.24,8.51c0-.08,0-.15,0-.23a26.63,26.63,0,0,0,7.46-1c.21.41.41.82.59,1.23L9,8.56A11.49,11.49,0,0,0,3.1,13.36h0A7.24,7.24,0,0,1,1.24,8.51ZM8.5,15.77a7.24,7.24,0,0,1-4.63-1.67l.16.13A9.84,9.84,0,0,1,9.74,9.7l0,0a30.2,30.2,0,0,1,1.55,5.51A7.22,7.22,0,0,1,8.5,15.77Zm4.06-1.24a31.4,31.4,0,0,0-1.41-5.19,10.51,10.51,0,0,1,4.53.32A7.27,7.27,0,0,1,12.56,14.53Z" style="fill:#fff;fill-rule:evenodd"/></svg>