<svg id="Calque_1" data-name="Calque 1" xmlns="http://www.w3.org/2000/svg" viewBox="0 0 266.22 33.91"><defs><style>.cls-1{fill:#fff;}</style></defs><title>thehidden</title><path class="cls-1" d="M3.55,13a3.33,3.33,0,0,0,3.51,3.55,3.47,3.47,0,0,0-3.51,3.6V33.91H0V.29H3.55ZM23.82,33.91H20.27V20.12a3.47,3.47,0,0,0-3.51-3.6,3.35,3.35,0,0,0,3.51-3.6V.29h3.55Z"/><path class="cls-1" d="M57.56,33.91H54V.29h3.55Z"/><path class="cls-1" d="M91.67,33.91H88V.29h3.65ZM96.47.29c13.4,0,17.1,9.56,17.1,16.81,0,9.46-5.38,16.81-17.1,16.81,9.27,0,13.06-8,13.06-16.81S105.4.29,96.47.29Z"/><path class="cls-1" d="M144.22,33.91h-3.65V.29h3.65ZM149,.29c13.4,0,17.1,9.56,17.1,16.81,0,9.46-5.38,16.81-17.1,16.81,9.27,0,13.06-8,13.06-16.81S158,.29,149,.29Z"/><path class="cls-1" d="M193.35,33.91V.29H197V33.91Zm13.88-11.77a5.34,5.34,0,0,0-5.43-5.38,5.34,5.34,0,0,0,5.43-5.38Zm8.45,11.77h-9.89c8.55-.19,9.51-4.95,9.89-8.5ZM215.2,6.44S214.44.86,207,.29h8.16Z"/><path class="cls-1" d="M242.31,33.62h-8.64c2.88-.34,4.08-2,4.32-4.66C238.23,31.6,239.43,33.28,242.31,33.62Zm19.83-6.24v6.53L237.6,0h4.75ZM258.06,0h8.16c-2.64.24-3.94,1.92-4.08,4.66C262,1.92,260.7.24,258.06,0Z"/><path class="cls-1" d="M51.7.3h8.16C57.23.54,55.93,2.22,55.79,5,55.64,2.22,54.35.54,51.7.3Z"/></svg>