<svg xmlns="http://www.w3.org/2000/svg" viewBox="0 0 17.04 13.85"><title>twitter</title><path d="M17,1.64a7,7,0,0,1-2,.55A3.5,3.5,0,0,0,16.57.26a7,7,0,0,1-2.22.85,3.5,3.5,0,0,0-6,3.19A9.92,9.92,0,0,1,1.19.64,3.5,3.5,0,0,0,2.27,5.31,3.5,3.5,0,0,1,.68,4.87v0a3.5,3.5,0,0,0,2.8,3.43,3.41,3.41,0,0,1-.92.12,3.46,3.46,0,0,1-.66-.06,3.5,3.5,0,0,0,3.26,2.43,7,7,0,0,1-4.34,1.5,7,7,0,0,1-.83,0,9.9,9.9,0,0,0,5.36,1.57A9.88,9.88,0,0,0,15.3,3.9c0-.15,0-.3,0-.45A7.09,7.09,0,0,0,17,1.64" style="fill:#fff"/></svg>